Coordinates
version=1
nRows=4
nColumns=63
inDegrees=yes

Units are S.I. units (second, meters, Newtons, ...)
If the header above contains a line with 'inDegrees', this indicates whether rotational values are in degrees (yes) or radians (no).

endheader
time	pelvis_tilt	pelvis_list	pelvis_rotation	pelvis_tx	pelvis_ty	pelvis_tz	hip_flexion_r	hip_adduction_r	hip_rotation_r	knee_angle_r	knee_angle_r_beta	ankle_angle_r	subtalar_angle_r	mtp_angle_r	hip_flexion_l	hip_adduction_l	hip_rotation_l	knee_angle_l	knee_angle_l_beta	ankle_angle_l	subtalar_angle_l	mtp_angle_l	L5_S1_Flex_Ext	L5_S1_Lat_Bending	L5_S1_axial_rotation	L4_L5_Flex_Ext	L4_L5_Lat_Bending	L4_L5_axial_rotation	L3_L4_Flex_Ext	L3_L4_Lat_Bending	L3_L4_axial_rotation	L2_L3_Flex_Ext	L2_L3_Lat_Bending	L2_L3_axial_rotation	L1_L2_Flex_Ext	L1_L2_Lat_Bending	L1_L2_axial_rotation	L1_T12_Flex_Ext	L1_T12_Lat_Bending	L1_T12_axial_rotation	Abs_r3	Abs_r2	Abs_r1	Abs_t1	Abs_t2	neck_flexion	neck_bending	neck_rotation	arm_flex_r	arm_add_r	arm_rot_r	elbow_flex_r	pro_sup_r	wrist_flex_r	wrist_dev_r	arm_flex_l	arm_add_l	arm_rot_l	elbow_flex_l	pro_sup_l	wrist_flex_l	wrist_dev_l
      3.90000000	      5.36668604	     -3.19807264	     98.36846679	      0.27783469	      0.85614890	      0.51960450	     -2.88800114	      5.04014398	    -11.23318341	      7.03484702	      0.12278124	     24.95929821	      5.31028471	      0.00000000	     -0.06132012	     -7.43404335	    -10.58927832	      9.36850122	      0.16351119	     31.80564205	     14.37198797	      0.00000000	      0.35546810	      0.65965848	     -1.02801714	      0.66013981	      0.87734578	     -1.09226821	      0.58399854	      1.60389363	     -1.09226821	      0.40626449	      1.60389363	     -0.89951500	      0.33008768	      1.34517557	     -0.83526393	      0.20311447	      1.02181099	     -0.77101285	      2.53907309	      7.46218867	     -5.71752292	      0.00000000	      0.00000000	     28.34233759	     -4.83439225	      4.06127928	     29.14510343	    -39.71974938	    100.11953844	      7.67139520	     12.29763285	    -11.42838836	     -1.11653273	     22.55299637	    -33.44928157	     75.91669283	      5.23519546	     59.74750177	     -6.84895300	     12.91901582
      3.92000000	      5.28702316	     -3.69598808	     97.77568699	      0.27934516	      0.85556612	      0.52130494	     -2.07072670	      4.85315070	    -10.93902326	      7.36437388	      0.12853257	     25.04187525	      5.49309542	      0.00000000	      0.47062084	     -7.30852933	    -11.15287977	      9.33574128	      0.16293942	     31.89789107	     14.24721673	      0.00000000	      0.37662980	      0.63528695	     -0.98660847	      0.69943920	      0.84493164	     -1.04827150	      0.61876510	      1.54463669	     -1.04827150	      0.43045020	      1.54463669	     -0.86328241	      0.34973843	      1.29547715	     -0.80161938	      0.21520627	      0.98405949	     -0.73995635	      2.69022899	      7.18649304	     -5.48722031	      0.00000000	      0.00000000	     28.34665915	     -4.37104923	      3.78277918	     31.10701797	    -38.27497043	    102.78691545	      7.41164927	     12.70037409	    -12.26032933	     -1.08996339	     22.97658508	    -32.68678501	     78.22961539	      5.32334415	     62.50645210	     -8.81355562	     13.86960878
      3.94000000	      5.19343550	     -4.03308303	     97.14175988	      0.28087745	      0.85513492	      0.52291567	     -1.56490537	      4.74282479	    -10.18025331	      7.39251290	      0.12902369	     24.95066679	      5.19533048	      0.00000000	      0.75553212	     -7.21753387	    -12.00712274	      9.18771554	      0.16035589	     32.03222271	     14.82642811	      0.00000000	      0.37821290	      0.61315752	     -0.92074945	      0.70237918	      0.81549950	     -0.97829629	      0.62136598	      1.49083118	     -0.97829629	      0.43225953	      1.49083118	     -0.80565577	      0.35120850	      1.25035081	     -0.74810893	      0.21611085	      0.94978099	     -0.69056209	      2.70153695	      6.93616045	     -5.12093220	      0.00000000	      0.00000000	     28.34447109	     -4.09168801	      3.32653378	     32.89180746	    -35.77617378	    118.12959429	      4.83457407	      3.84237309	    -11.66166237	     -1.87160508	     23.92892015	    -31.70789615	     83.57349766	      5.48166080	     65.11406070	     -9.93044236	     14.48879048
      3.96000000	      5.08052525	     -4.04456318	     96.77258769	      0.28186960	      0.85560315	      0.52529173	     -1.33964118	      4.65654594	     -9.54360730	      7.43116304	      0.12969826	     24.75856382	      4.69243313	      0.00000000	      0.81790536	     -7.08720993	    -12.04799918	      9.04004450	      0.15777854	     31.87579915	     14.80735761	      0.00000000	      0.33726287	      0.60201371	     -0.88335877	      0.62633088	      0.80067824	     -0.93856869	      0.55408917	      1.46373614	     -0.93856869	      0.38545774	      1.46373614	     -0.77293892	      0.31318230	      1.22762636	     -0.71772900	      0.19271200	      0.93251924	     -0.66251907	      2.40903497	      6.81009950	     -4.91297645	      0.00000000	      0.00000000	     28.32120713	     -4.06229953	      3.20209278	     33.84061873	    -33.03173596	    126.69782883	      2.36187115	      2.43236792	    -12.00663863	     -3.24353119	     25.57532410	    -30.08437773	     91.82261748	      5.90438559	     67.47953025	    -10.78693062	     14.32791819
